<svg xmlns="http://www.w3.org/2000/svg" viewBox="0 0 64 64">
  <defs>
    <linearGradient id="g" x1="0" y1="0" x2="1" y2="1">
      <stop offset="0" stop-color="#2563eb"/>
      <stop offset="1" stop-color="#f97316"/>
    </linearGradient>
  </defs>
  <rect x="6" y="6" width="52" height="52" rx="14" fill="url(#g)"/>
  <path d="M23.5 33.5c0-6.8 5.2-12 12.4-12 2.5 0 4.8.6 6.8 1.8a2.2 2.2 0 0 1 .8 3.1 2.2 2.2 0 0 1-3.1.8 8.4 8.4 0 0 0-4.5-1.2c-4.6 0-7.9 3.2-7.9 7.7 0 4.6 3.3 7.7 8.2 7.7 1.8 0 3.3-.3 4.4-.8v-3.2h-4.3a2.2 2.2 0 0 1 0-4.4h6.5c1.2 0 2.2 1 2.2 2.2v7c0 .8-.4 1.6-1.1 2a16.2 16.2 0 0 1-7.7 1.8c-7.7 0-12.7-5-12.7-12.3Z" fill="#fff"/>
</svg>
